Movie:
 
http://www.imdb.com/title/tt0376127/
7.4/10


Plot:
    Anniyan is about Ramanujam alias Ambi who suffers from Multiple Personality Disorder. Ambi (a lawyer), Remo(a suave supermodel) and Anniyan (a vigilante who wreaks havoc on people who cheat, loots or conned Ambi).


File:


Format                                   : MPEG-4
Format profile                           : Base Media / Version 2
Codec ID                                 : mp42
File size                                : 759 MiB
Duration                                 : 3h 1mn
Overall bit rate mode                    : Variable
Overall bit rate                         : 584 Kbps


Video

ID                                       : 1
Format                                   : AVC
Format/Info                              : Advanced Video Codec
Format profile                           : Main@L3.0
Format settings, CABAC                   : Yes
Format settings, ReFrames                : 4 frames
Codec ID                                 : avc1
Codec ID/Info                            : Advanced Video Coding
Duration                                 : 3h 1mn
Bit rate mode                            : Variable
Bit rate                                 : 500 Kbps
Width                                    : 720 pixels
Height                                   : 304 pixels
Display aspect ratio                     : 2.35:1
Frame rate mode                          : Constant
Frame rate                               : 24.000 fps
Color space                              : YUV
Chroma subsampling                       : 4:2:0
Bit depth                                : 8 bits
Scan type                                : Progressive
Bits/(Pixel*Frame)                       : 0.095
Stream size                              : 649 MiB (86%)
Writing library                          : x264 core 120


Audio

ID                                       : 2
Format                                   : AAC
Format/Info                              : Advanced Audio Codec
Format profile                           : LC
Codec ID                                 : 40
Duration                                 : 3h 1mn
Bit rate mode                            : Variable
Bit rate                                 : 79.9 Kbps
Maximum bit rate                         : 156 Kbps
Channel(s)                               : 2 channels
Channel positions                        : Front: L R
Sampling rate                            : 48.0 KHz
Compression mode                         : Lossy
Delay relative to video                  : -83ms
Stream size                              : 104 MiB (14%)
Language                                 : Tamil
